<?xml version="1.0" encoding="UTF-8"?>
<svg version="1.1" xmlns="http://www.w3.org/2000/svg" width="40" height="40">
<path d="M0 0 C0.33 0.99 0.66 1.98 1 3 C2.98045559 3.66179847 2.98045559 3.66179847 5 4 C6.83758209 5.83758209 6.30114371 8.58831431 6.375 11.0625 C6.36108102 17.38171504 5.05803705 21.20282049 1 26 C1.886875 26.04125 2.77375 26.0825 3.6875 26.125 C8.13888218 27.3008368 9.51370768 29.19743528 12 33 C12 34.65 12 36.3 12 38 C1.44 38 -9.12 38 -20 38 C-18.86831442 30.07820097 -18.86831442 30.07820097 -16.1875 28.0625 C-13 26 -13 26 -9 26 C-9.3609375 25.57332031 -9.721875 25.14664062 -10.09375 24.70703125 C-14.11878542 19.28441408 -14.77557015 14.64048646 -14.47265625 7.9453125 C-14 5 -14 5 -12.0625 1.6875 C-7.94053169 -0.58378866 -4.60277222 -0.45125218 0 0 Z " fill="#F0B790" transform="translate(24,1)"/>
<path d="M0 0 C0.66 0.99 1.32 1.98 2 3 C5 3.5 5 3.5 8 3 C8.66 2.01 9.32 1.02 10 0 C14.24745424 0.19755601 15.74424694 0.75536664 18.875 3.75 C21 7 21 7 21 12 C10.44 12 -0.12 12 -11 12 C-9.86831442 4.07820097 -9.86831442 4.07820097 -7.1875 2.0625 C-4 0 -4 0 0 0 Z " fill="#B5DAF5" transform="translate(15,27)"/>
<path d="M0 0 C0.99 0.66 1.98 1.32 3 2 C3.70677806 5.71058479 3.58230263 9.27546053 3 13 C0.875 15.75 0.875 15.75 -2 17 C-5.18343075 16.93633139 -7.11349424 16.67266479 -9.66796875 14.734375 C-11.40902249 12.46743113 -11.31022388 11.13514913 -11.1875 8.3125 C-11.16042969 7.50425781 -11.13335937 6.69601563 -11.10546875 5.86328125 C-11.07066406 5.24839844 -11.03585937 4.63351563 -11 4 C-10.28972656 3.79503906 -9.57945313 3.59007812 -8.84765625 3.37890625 C-7.92855469 3.10949219 -7.00945313 2.84007812 -6.0625 2.5625 C-4.68771484 2.16224609 -4.68771484 2.16224609 -3.28515625 1.75390625 C-1.0597507 1.20973949 -1.0597507 1.20973949 0 0 Z " fill="#FEEDA2" transform="translate(24,9)"/>
<path d="M0 0 C0.66 0.33 1.32 0.66 2 1 C2.71834456 14.4490064 2.71834456 14.4490064 -2 20 C-2.69822617 21.65369357 -3.37498605 23.31727014 -4 25 C-5 26 -5 26 -7.9375 26.1875 C-11 26 -11 26 -13 24 C-13.67441131 22.3364521 -14.3400321 20.66933058 -15 19 C-15.76957031 17.89011719 -15.76957031 17.89011719 -16.5546875 16.7578125 C-18.34363735 13.34430278 -18.30351472 11.0159857 -18.1875 7.1875 C-18.16042969 6.02605469 -18.13335937 4.86460938 -18.10546875 3.66796875 C-18.07066406 2.78753906 -18.03585938 1.90710938 -18 1 C-17.67 1 -17.34 1 -17 1 C-16.67 3.31 -16.34 5.62 -16 8 C-15.67 8 -15.34 8 -15 8 C-14.97421875 8.61488281 -14.9484375 9.22976563 -14.921875 9.86328125 C-14.65621389 14.86262842 -14.65621389 14.86262842 -12.3125 19.125 C-9.17156102 20.3134634 -7.19835267 19.90388228 -4 19 C-1.44346701 16.44346701 -1.66115744 15.17496701 -1.4375 11.625 C-1.21659096 8.27980592 -0.86260175 5.23653882 0 2 C0 1.34 0 0.68 0 0 Z " fill="#DECB7A" transform="translate(28,5)"/>
<path d="M0 0 C0.66 0.33 1.32 0.66 2 1 C2.72532895 14.57976974 2.72532895 14.57976974 -2 20 C-2.69429379 21.3191582 -3.37530495 22.64649406 -4 24 C-4.6875 22.1875 -4.6875 22.1875 -5 20 C-4.52433594 19.57203125 -4.04867188 19.1440625 -3.55859375 18.703125 C-1.42242748 16.36886813 -1.53593996 14.68388812 -1.375 11.5625 C-1.18439858 8.22697514 -0.86462088 5.22461066 0 2 C0 1.34 0 0.68 0 0 Z " fill="#C6A062" transform="translate(28,5)"/>
<path d="M0 0 C0.33 0 0.66 0 1 0 C1.33 2.31 1.66 4.62 2 7 C2.33 7 2.66 7 3 7 C3.03738281 7.60328125 3.07476562 8.2065625 3.11328125 8.828125 C3.56253341 14.99367772 3.56253341 14.99367772 7 20 C6.34 20.99 5.68 21.98 5 23 C4.731875 22.278125 4.46375 21.55625 4.1875 20.8125 C3.11264181 17.99732883 3.11264181 17.99732883 1.4375 15.75 C-0.34408513 12.34175018 -0.30327844 10.00818838 -0.1875 6.1875 C-0.16042969 5.02605469 -0.13335937 3.86460938 -0.10546875 2.66796875 C-0.07066406 1.78753906 -0.03585937 0.90710938 0 0 Z " fill="#C6A261" transform="translate(10,6)"/>
</svg>
