<svg width="57" height="40" viewBox="0 0 57 40" fill="none" xmlns="http://www.w3.org/2000/svg">
<rect width="56.0028" height="40" rx="12" fill="#F0F2F5"/>
<path d="M27.5241 13.2647L16.0009 22.7553V32.9985C16.0009 33.2637 16.1063 33.518 16.2938 33.7056C16.4814 33.8931 16.7357 33.9985 17.0009 33.9985L24.0047 33.9803C24.269 33.979 24.5221 33.8731 24.7086 33.6857C24.895 33.4983 24.9997 33.2447 24.9997 32.9803V26.9985C24.9997 26.7332 25.105 26.4789 25.2926 26.2914C25.4801 26.1038 25.7345 25.9985 25.9997 25.9985H29.9997C30.2649 25.9985 30.5193 26.1038 30.7068 26.2914C30.8943 26.4789 30.9997 26.7332 30.9997 26.9985V32.976C30.9993 33.1075 31.0248 33.2379 31.0749 33.3596C31.125 33.4813 31.1986 33.5919 31.2915 33.6851C31.3844 33.7783 31.4947 33.8522 31.6163 33.9027C31.7378 33.9531 31.8681 33.9791 31.9997 33.9791L39.0009 33.9985C39.2662 33.9985 39.5205 33.8931 39.708 33.7056C39.8956 33.518 40.0009 33.2637 40.0009 32.9985V22.7485L28.4803 13.2647C28.3449 13.1555 28.1761 13.096 28.0022 13.096C27.8282 13.096 27.6595 13.1555 27.5241 13.2647ZM45.7259 19.7153L40.5009 15.4085V6.75159C40.5009 6.55267 40.4219 6.36191 40.2813 6.22126C40.1406 6.0806 39.9498 6.00159 39.7509 6.00159H36.2509C36.052 6.00159 35.8613 6.0806 35.7206 6.22126C35.58 6.36191 35.5009 6.55267 35.5009 6.75159V11.2897L29.9053 6.68596C29.3683 6.24407 28.6945 6.00247 27.9991 6.00247C27.3036 6.00247 26.6298 6.24407 26.0928 6.68596L10.2722 19.7153C10.1962 19.7781 10.1334 19.8552 10.0873 19.9423C10.0411 20.0294 10.0126 20.1247 10.0033 20.2227C9.99405 20.3208 10.0042 20.4198 10.0332 20.514C10.0621 20.6081 10.1094 20.6957 10.1722 20.7716L11.7659 22.7091C11.8286 22.7853 11.9056 22.8483 11.9927 22.8947C12.0797 22.941 12.1751 22.9698 12.2732 22.9792C12.3714 22.9887 12.4705 22.9787 12.5648 22.9498C12.6591 22.921 12.7468 22.8738 12.8228 22.811L27.5241 10.7022C27.6595 10.593 27.8282 10.5335 28.0022 10.5335C28.1761 10.5335 28.3449 10.593 28.4803 10.7022L43.1822 22.811C43.2581 22.8738 43.3456 22.921 43.4398 22.95C43.534 22.979 43.6329 22.9891 43.731 22.9798C43.8291 22.9705 43.9244 22.942 44.0115 22.8959C44.0985 22.8497 44.1757 22.7869 44.2384 22.711L45.8322 20.7735C45.8949 20.6971 45.942 20.6091 45.9706 20.5145C45.9992 20.42 46.0089 20.3206 45.999 20.2223C45.9892 20.124 45.9599 20.0286 45.9131 19.9416C45.8662 19.8546 45.8026 19.7777 45.7259 19.7153Z" fill="#4B5563"/>
</svg>
